<svg version="1.1" xmlns="http://www.w3.org/2000/svg" xmlns:xlink="http://www.w3.org/1999/xlink" x="0px" y="0px" viewBox="0 0 1000 1000" enable-background="new 0 0 1000 1000" xml:space="preserve">    <g fill="#61DAFB">
        <g transform="translate(0.000000,511.000000) scale(0.100000,-0.100000)"><path d="M4470.6,4966.5c-1128.3-129-2153.3-619.3-2943.8-1407.4c-1902.4-1904.7-1902.4-4991.6,0-6896.3c1029.7-1027.4,2486.4-1550.5,3919.6-1407.4c2322.2,234.6,4149.5,2061.9,4384.1,4384.1c79.8,799.9-42.2,1583.3-365.9,2364.4l-129,309.6l136,140.7c577,591.1,570,1505.9-14.1,2092.3c-584.1,581.7-1505.9,588.8-2090,18.8c-105.6-103.2-143.1-126.7-173.6-110.2c-140.7,79.8-633.3,269.8-870.2,337.8c-443.3,129-762.3,175.9-1243.2,185.3C4848.2,4982.9,4573.8,4978.2,4470.6,4966.5z M5432.3,4591.1c309.6-37.5,626.3-105.6,910.1-199.4c286.2-93.8,673.2-265.1,673.2-297.9c0-11.7-23.5-86.8-51.6-166.5c-42.2-117.3-51.6-199.4-51.6-426.9c-2.3-328.4,42.2-502,201.7-771.7l93.8-159.5l-234.6-234.6L6738.9,2100L6584,2217.3c-776.4,586.4-1855.4,682.6-2730.4,241.6c-628.7-319-1086.1-853.8-1325.3-1552.8c-9.4-28.1-56.3-39.9-175.9-51.6c-286.2-23.5-516-178.3-638-426.9c-82.1-171.2-82.1-466.8,0-633.3c122-248.6,354.2-405.8,642.7-431.6l161.9-14.1l39.9-117.3c159.5-471.5,574.7-1011,996.9-1294.8c1297.2-872.6,3063.4-429.3,3783.6,950c405.8,778.8,412.9,1653.7,14.1,2423.1c-58.6,114.9-159.5,276.8-225.2,363.6L7011,1827.9l234.6,234.6l234.6,234.6l159.5-93.8c269.8-159.5,443.3-204.1,771.7-201.7c227.5,0,309.6,9.4,426.9,51.6c79.7,28.1,150.1,51.6,154.8,51.6c21.1,0,180.6-380,260.4-612.2c464.4-1388.6,197-2927.4-715.4-4130.7c-190-248.6-565.3-623.9-814-814c-952.4-722.5-2104.1-1041.5-3265.2-905.4C2988.1-4186.4,1702.7-3311.5,1006-2004.9c-504.3,940.6-654.5,2022-426.9,3075.2c82.1,387,175.9,645.1,375.3,1046.2c443.3,896.1,1114.2,1566.9,2015,2014.9c398.8,199.4,654.4,290.9,1050.9,377.7C4487,4609.9,5003.1,4638.1,5432.3,4591.1z M8669.4,4579.4c600.5-157.2,973.5-771.7,821-1355.8c-157.2-605.2-771.7-978.1-1355.8-825.7c-143.1,37.5-368.3,140.7-368.3,171.2c0,9.4,56.3,75.1,126.7,143.1l126.7,124.3l143.1-51.6c349.5-129,745.9,39.9,917.1,387c82.1,168.9,82.1,464.4,0,633.3c-72.7,150.1-213.4,290.9-363.6,363.6c-96.2,46.9-152.5,58.6-316.7,58.6s-220.5-11.7-316.7-58.6c-347.1-171.2-516-567.7-387-917.2l51.6-143.1L7623.2,2982c-68-70.4-133.7-126.7-143.1-126.7c-30.5,0-133.7,225.2-171.2,368.3C7100.1,4023.5,7867.1,4788.2,8669.4,4579.4z M8547.4,3831.1c241.6-100.9,300.2-415.2,112.6-602.8c-262.7-265.1-694.3-28.1-626.3,342.5C8075.9,3791.3,8333.9,3922.6,8547.4,3831.1z M5401.8,2329.9c340.1-61,670.9-201.7,945.3-401.1l129-93.8L6075,1433.9l-401.1-401.1l-122,65.7c-431.6,234.6-945.3,161.9-1306.6-183c-462.1-438.6-462.1-1170.5,0-1609.1c445.7-426.9,1107.2-426.9,1552.9,0C6164.2-346.5,6251,197.7,6009.4,641l-65.7,122l401.1,401.1l401.1,401.1l93.8-129C7290.1,816.9,7395.7-1.7,7118.9-707.7c-225.2-567.7-710.8-1053.2-1278.4-1278.4c-290.8-112.6-452.7-140.7-818.6-140.7c-276.8,0-377.7,9.4-539.5,51.6c-349.5,93.8-708.4,288.5-982.9,534.8c-243.9,218.1-525.4,661.5-614.6,964.1c-28.1,96.2-25.8,100.9,46.9,175.9c42.2,42.2,105.6,131.3,138.4,194.7c53.9,100.9,63.3,145.4,63.3,316.7s-9.4,215.8-63.3,319c-32.9,63.3-96.2,154.8-138.4,199.4l-75,79.8l53.9,159.5c119.6,347.2,377.6,717.8,680.2,971.1c180.6,150.1,532.5,347.2,745.9,417.5C4655.9,2360.4,5071.1,2388.6,5401.8,2329.9z M5338.5,788.8c147.8-70.4,290.9-211.1,363.6-361.2c44.6-93.8,56.3-154.8,56.3-316.7c2.4-183-4.7-211.1-77.4-347.2c-89.2-164.2-161.9-234.6-340.1-328.4c-103.2-53.9-147.8-63.3-319-61c-161.9,0-222.8,11.7-316.7,56.3c-147.8,72.7-290.9,213.5-363.6,363.6c-82.1,166.6-82.1,462.1,0,633.3c98.5,201.7,288.5,356.6,504.3,412.8C4972.6,873.2,5211.8,847.4,5338.5,788.8z M2542.4,453.4C2784,352.5,2842.7,38.2,2655-149.5c-152.5-152.5-368.3-152.5-520.7,0C1843.4,139.1,2164.8,612.9,2542.4,453.4z"/><path d="M4869.4,453.4c-236.9-103.2-293.2-417.5-107.9-602.8c152.5-152.5,368.3-152.5,520.8,0C5573.1,141.4,5247,617.6,4869.4,453.4z"/></g>
    </g>
</svg>
